#!OML:ASF F:\VICON\USERDATA\INSTALL\rory3\rory3.ASF
:FULLY-SPECIFIED
:DEGREES
126
root 1.3880436476394333 17.89259005930959 53.916191783054416 -4.132434158789768 2.9201227778530745 -1.8574696811144227
lfemur -8.3071914114269 -3.331194820411372 -21.694228843969263
ltibia 23.7943303028732
lfoot -9.886968700752385 -1.3025886586541264
ltoes -14.003436089544797
rfemur -15.476802530317725 -1.4388821104925196 23.593613082299427
rtibia 52.548898039459914
rfoot -6.3662140638510065 -10.314207401667227
rtoes 5.78106776112278
lowerback nan 0.19733182903690363 0.5531536147713926
upperback -0.3026427949863281 0.31477637545105697 1.1144608418517075
thorax -5.954872802534785 0.1910869550387136 0.32026288901510847
lowerneck -16.258389032726132 -3.9490603775721325 -1.6368776444994286
upperneck 21.38426622272453 -5.638258086134054 2.197515329234152
head 9.643092649329565 -2.4729513436046338 0.27505138421910624
lclavicle -2.5612267913192044e-15 -2.7765367089437466e-15
lhumerus -28.775351055439753 1.9599253748707415 81.59605965170935
lradius 26.180539826060386
lwrist 9.258269179604088
lhand -29.511272956485225 18.447118468371286
lfingers nan
lthumb -2.8656961852433467 48.41076729091959
rclavicle -2.5273900437526486e-15 -2.7546787431222056e-15
rhumerus -29.91184023286322 -19.943852279811164 -75.94249764935924
rradius 32.007919293212765
rwrist 2.316436539721786
rhand -18.030377199129397 nan
rfingers nan
rthumb 8.859205448692597 -7.098809575209556
127
root 1.4071217603709782 17.898603705725378 54.71188048956737 -3.949793325239467 2.940744364840744 -1.2051568372791963
lfemur -5.3391114558974495 -3.618608549871083 -22.70045848248931
ltibia 23.017413694628146
lfoot -9.540674634949465 -2.009755852843957
ltoes -14.234153454700946
rfemur -17.522804795724426 -1.5908575317249078 22.935190142399584
rtibia 54.5105979970276
rfoot -6.650306592482744 -8.982588989038982
rtoes 5.4553281078884535
lowerback nan -0.08259093766510314 -0.08817679974878945
upperback -0.29247759917345095 -0.1646285301929135 1.048887063532514
thorax -6.014608452500022 -0.036620399430710965 0.8237619831109578
lowerneck -16.37132780816711 -3.922526307170419 -1.6005575411156778
upperneck 21.301137399325913 -5.584623495927605 2.300411445385816
head 9.63874311349015 -2.444883507372175 0.3191136433978216
lclavicle -2.5655703968415886e-15 -2.7773725344072988e-15
lhumerus -28.549353221641287 1.718244682268748 81.5305957308626
lradius 26.228875103566278
lwrist 9.003957177250864
lhand -29.492031881807677 18.62379324158658
lfingers nan
lthumb -2.795310133830373 48.677790093213844
rclavicle -2.527379620374206e-15 -2.7533795227755786e-15
rhumerus -29.793215245561996 -19.729876727932773 -75.99708642699039
rradius 31.971775481722545
rwrist 2.328424922124036
rhand -18.024250605636507 nan
rfingers nan
rthumb 8.777517397238832 -7.275299348256965
128
root 1.428764334067628 17.9076214026128 55.69985153247984 -3.7921361510066474 2.81224846266847 -0.08455203615780871
lfemur -2.013242961867644 -3.889491960359909 -24.08716167818426
ltibia 22.173398123178302
lfoot -8.701488125025945 -1.959506990050635
ltoes -14.556086986063322
rfemur -19.085417983693485 -1.6283879297880843 21.954493570495018
rtibia 55.304838251766654
rfoot -6.888154163960472 -7.695165259504573
rtoes 4.886835051209637
lowerback nan -0.41431794375427256 -1.1568336963483095
upperback -0.27345106644585254 -0.7709208432591339 0.9548894870689285
thorax -6.050102828996758 -0.3243962767434426 1.4807398480470728
lowerneck -16.487683998312757 -3.879374975930894 -1.565708659541021
upperneck 21.237789573585985 -5.500482013962201 2.3500474568279683
head 9.645089166541807 -2.409097579072333 0.34881416254974046
lclavicle -2.569654127660099e-15 -2.7778343186499127e-15
lhumerus -28.325506245381103 1.4632945008157527 81.47967492015856
lradius 26.213718585039484
lwrist 8.869392679025731
lhand -29.4425917045823 18.81285588870824
lfingers nan
lthumb -2.765352711014705 48.80570881754617
rclavicle -2.526883423088678e-15 -2.7516386304876696e-15
rhumerus -29.813277814241523 -19.553815440561614 -76.07763527566672
rradius 31.942795058462547
rwrist 2.3112527683980915
rhand -18.01441925057131 nan
rfingers nan
rthumb 8.856048084335107 -7.110785396306207
129
root 1.4547010080072402 17.9231180370439 56.28054584502359 -3.5452404816845133 2.5740712085575055 0.44582550824006617
lfemur 1.2172843775748348 -4.1148725774432275 -24.888592038909593
ltibia 21.32324757032241
lfoot -7.9805147833118735 -3.1890916480930396
ltoes -14.636395092294034
rfemur -20.218034465294895 -1.493088120998748 21.80254162525725
rtibia 55.002986033144516
rfoot -7.180926994373036 -6.632941155825234
rtoes 4.022654103693212
lowerback nan -0.7722066576433676 -1.8112929159816826
upperback -0.27936959745190687 -1.3163916050700801 0.9688378939834625
thorax -6.0632490993015695 -0.5913250668542914 2.117326364199154
lowerneck -16.595844786848392 -3.8170581058428326 -1.5477659944563373
upperneck 21.2070340815768 -5.381556664413339 2.347227445902962
head 9.65992782095879 -2.3641953391120145 0.3676117207794891
lclavicle -2.5730955126270377e-15 -2.7773449652836245e-15
lhumerus -28.089974519949877 1.2220694077258418 81.45480231908357
lradius 26.128937643326182
lwrist 8.890112669464838
lhand -29.361760114732892 19.02860325404601
lfingers nan
lthumb -2.6580736284984186 49.05285693767627
rclavicle -2.5264120021673346e-15 -2.749525083991972e-15
rhumerus -29.92605813398679 -19.4708963825374 -76.26455513746227
rradius 31.900438177384753
rwrist 2.2805556981633917
rhand -18.00904797742526 nan
rfingers nan
rthumb 8.776942121845027 -7.276778394212346
130
root 1.4739676279221134 17.93156970433956 56.12028774170241 -3.447002381465518 2.098256708755005 0.6792723561066358
lfemur 4.2174636417594655 -4.251163997598967 -25.353393629196006
ltibia 20.628453577007953
lfoot -6.65803314253588 -4.750847869204152
ltoes -14.171506297973313
rfemur -21.55770245449496 -1.17427247976789 21.89239348874151
rtibia 53.954721495828345
rfoot -7.488195742772021 -5.8862313294288295
rtoes 2.950138368443419
lowerback nan -1.089314886047013 -2.298204816964165
upperback -0.30566626748194603 -1.758977112136298 1.06199269482833
thorax -6.0546095162011655 -0.8094272630159106 2.6784089498917787
lowerneck -16.689102811373083 -3.7364699005888253 -1.5571426618477962
upperneck 21.22518984882876 -5.229920314498872 2.296654643496055
head 9.682050149020332 -2.310475307654966 0.3789121396718611
lclavicle -2.574660244480246e-15 -2.7758129585062788e-15
lhumerus -27.855902540223052 1.0456503722450954 81.47247941222281
lradius 25.968559763696824
lwrist 8.973017136747073
lhand -29.295640933834655 19.13711036982582
lfingers nan
lthumb -2.638702902450407 49.035812324340064
rclavicle -2.52697337574492e-15 -2.7480869783623423e-15
rhumerus -30.007850741566017 -19.361480858576275 -76.45302309435122
rradius 31.82400265771801
rwrist 2.248725012329798
rhand -18.00327057790379 nan
rfingers nan
rthumb 8.83537640260178 -7.145504594825377
